<svg data-name="Group 43" xmlns="http://www.w3.org/2000/svg" width="242.554" height="111.652" viewBox="0 0 242.554 111.652">
    <defs>
        <clipPath id="5sbq0m451a">
            <path data-name="Clip 3" d="M0 0h59.46v81.058H0z" style="fill:none"/>
        </clipPath>
        <clipPath id="fd0jxxpz5b">
            <path data-name="Clip 35" d="M0 0h16v23.493H0z" style="fill:none"/>
        </clipPath>
    </defs>
    <path data-name="Fill 1" d="M241.775 61.683h-18.4l-3.675-11.75h-21.094L194.6 61.682h-13.98L201.548 0H220.6l21.176 61.682zm-32.459-44.63L202.529 37.2h13.163l-6.212-20.148zm-148.16 44.63H42.76l-3.679-11.75H17.988L13.98 61.682H0L20.931 0H39.98l21.176 61.682zM28.7 17.052 21.91 37.2h13.165l-6.214-20.148z" transform="translate(0 31.231)" style="fill:red"/>
    <g data-name="Group 42">
        <g data-name="Group 4">
            <path data-name="Clip 3" d="M0 0h59.46v81.058H0z" style="fill:none" transform="translate(60.199 30.594)"/>
            <g data-name="Group 4" style="clip-path:url(#5sbq0m451a)" transform="translate(60.199 30.594)">
                <path data-name="Fill 2" d="m59.458 81.052-8.964-19.085H33.12c-12.108 0-21.082-3.534-26.674-10.5C1.118 44.825 0 36.439 0 30.573a35.325 35.325 0 0 1 2.026-12.142A26.57 26.57 0 0 1 17.915 2.322 38.131 38.131 0 0 1 31.562 0h13.473a11.366 11.366 0 0 1 8.235 3.323 12.183 12.183 0 0 1 3.3 8.323v50.32l2.893 19.085zM33.511 11.8h-.227c-5.039 0-8.869 1.944-11.385 5.779-2.1 3.2-3.208 7.663-3.208 12.909 0 17.117 9.708 19.673 15.495 19.673h4.674V16.843a4.808 4.808 0 0 0-1.095-3.686c-.88-.912-2.271-1.357-4.254-1.357z" style="fill:red"/>
            </g>
        </g>
        <g data-name="Group 7">
            <path data-name="Clip 6" d="M0 0h59.46v81.058H0z" style="fill:none" transform="translate(123.022 30.594)"/>
            <g data-name="Group 7" style="clip-path:url(#5sbq0m451a)" transform="translate(123.022 30.594)">
                <path data-name="Fill 5" d="m0 81.052 2.894-19.085V11.646a12.189 12.189 0 0 1 3.3-8.323A11.364 11.364 0 0 1 14.425 0H27.9a38.127 38.127 0 0 1 13.644 2.322 26.57 26.57 0 0 1 15.889 16.109 35.323 35.323 0 0 1 2.026 12.142c0 5.866-1.118 14.252-6.445 20.891-5.592 6.969-14.567 10.5-26.674 10.5H8.966zM25.949 11.8c-1.984 0-3.375.444-4.254 1.356a4.806 4.806 0 0 0-1.095 3.687v33.321h4.673c5.787 0 15.494-2.556 15.494-19.673 0-5.247-1.109-9.711-3.207-12.909-2.514-3.835-6.344-5.782-11.383-5.782z" transform="translate(.001)" style="fill:red"/>
            </g>
        </g>
        <path data-name="Fill 8" d="M10.891 20.195c-.38 1.721.262 1.867 2.334 2.071l-.2.875H4.091l.175-.875c2.335-.263 2.83-.437 3.181-2.071l3.532-16.572H9.14c-2.423 0-3.356 1.225-6.011 5.426H2.34L4.15 2.66h17.452l-.934 6.389h-.759c-.729-4.2-.934-5.426-3.356-5.426h-2.16z"/>
        <path data-name="Fill 10" d="M23.935 14.769c1.722-3.325 4.991-7.206 7.792-7.206 1.46 0 1.985.816 1.985 2.159a7.69 7.69 0 0 1-.176 1.342l-2.276 8.52a6.455 6.455 0 0 0-.262 1.254c0 .293.146.438.409.438.554 0 1.313-.613 2.567-2.16l.5.38c-1.839 2.683-3.036 3.939-4.64 3.939a1.942 1.942 0 0 1-2.013-2.159 9.412 9.412 0 0 1 .408-2.48l2.1-7.586a4.269 4.269 0 0 0 .146-.934c0-.41-.146-.613-.525-.613-1.664 0-5.691 4.143-6.975 9.307l-1.05 4.172H18.74l5.049-20.306-1.867-.9.118-.472L27.145.297h.437z"/>
        <path data-name="Fill 12" d="M39.371 23.433a4.537 4.537 0 0 1-3.535-1.484 5.825 5.825 0 0 1-1.28-3.912 11.7 11.7 0 0 1 2.575-7.153 9.58 9.58 0 0 1 2.768-2.403 6.791 6.791 0 0 1 3.357-.919 4.077 4.077 0 0 1 2.765.872 2.7 2.7 0 0 1 .883 2.076c0 1.673-.916 2.969-2.8 3.96a24.5 24.5 0 0 1-6.3 1.9c-.027.308-.06.71-.06 1.08a5.1 5.1 0 0 0 .806 3.042 2.664 2.664 0 0 0 2.221 1.07c1.573 0 2.95-.855 4.466-2.771l.555.437c-1.98 2.91-3.961 4.205-6.421 4.205zm3.385-14.908c-1.08 0-2.187.8-3.115 2.25a12.933 12.933 0 0 0-1.759 4.9c4.359-1.03 6.3-2.713 6.3-5.457.003-1.076-.518-1.693-1.426-1.693z"/>
        <path data-name="Fill 14" d="M53.873 5.606c.384-1.721-.116-1.838-2.016-2.071l.177-.875h8.376l-.2.875c-2.158.263-2.538.437-2.889 2.071l-3.127 14.589c-.38 1.721.116 1.839 2.042 2.071l-.2.877h-8.379l.2-.877c2.16-.262 2.569-.437 2.889-2.071z"/>
        <path data-name="Fill 16" d="M84.163 23.434c-1.243 0-1.955-.787-1.955-2.16a24.729 24.729 0 0 1 1.166-5.018 19.417 19.417 0 0 1-3.249 4.99c-1.335 1.431-2.635 2.188-3.754 2.188-1.992 0-3.181-1.625-3.181-4.347a12.9 12.9 0 0 1 2.918-8.017 8.55 8.55 0 0 1 6.332-3.508 3.541 3.541 0 0 1 2.715.963l1.43-5.69-1.868-.9.087-.467L89.941.297h.407L85.59 19.582a6.53 6.53 0 0 0-.262 1.256c0 .286.141.437.408.437.572 0 1.34-.645 2.568-2.158l.5.378c-1.792 2.613-3.001 3.939-4.641 3.939zm-1.43-14.967c-3.395 0-6.3 5.631-6.3 10.241 0 1.645.442 2.479 1.313 2.479 2.09 0 5.407-4.317 7.121-11.291a2.248 2.248 0 0 0-2.134-1.429z"/>
        <path data-name="Fill 18" d="M90.873 23.434a1.927 1.927 0 0 1-1.985-2.16 9.326 9.326 0 0 1 .38-2.479l2.16-8.578-1.722-.964.116-.437 5.048-1.253h.439l-3.006 12.02a6.673 6.673 0 0 0-.262 1.253c0 .287.141.438.408.438.558 0 1.278-.605 2.568-2.158l.5.379c-1.754 2.555-3.011 3.939-4.644 3.939zm3.734-18a1.892 1.892 0 0 1-1.954-1.871 2.08 2.08 0 0 1 2.101-2.1 1.892 1.892 0 0 1 1.955 1.869 2.1 2.1 0 0 1-2.102 2.099z"/>
        <path data-name="Fill 20" d="M106.455 23.433a1.908 1.908 0 0 1-1.984-2.159 19.391 19.391 0 0 1 1.079-4.667 19.889 19.889 0 0 1-3.057 4.8 5.075 5.075 0 0 1-3.539 2.024c-1.973.002-3.151-1.623-3.151-4.344a13.071 13.071 0 0 1 2.835-8.016 8.367 8.367 0 0 1 6.271-3.509 4.019 4.019 0 0 1 3.063 1.225l2.394-1.43h.7l-1.052 3.414-2.159 8.811-.035.159a7.148 7.148 0 0 0-.2 1.1c0 .286.14.437.406.437.544 0 1.312-.645 2.569-2.158l.5.378c-1.75 2.551-3.008 3.935-4.64 3.935zm-1.283-14.967c-1.52 0-3.089 1.228-4.305 3.37a14.911 14.911 0 0 0-1.854 7.047c0 1.486.466 2.3 1.313 2.3 1.071 0 2.345-1.08 3.59-3.041a29.311 29.311 0 0 0 3.326-8.249 2.177 2.177 0 0 0-2.07-1.427z"/>
        <path data-name="Fill 22" d="M115.967 14.768c1.751-3.297 5.019-7.206 7.821-7.206 1.46 0 1.985.816 1.985 2.159a7.828 7.828 0 0 1-.175 1.341l-2.277 8.52a6.4 6.4 0 0 0-.262 1.254c0 .293.146.438.408.438.555 0 1.314-.613 2.568-2.159l.5.38c-1.839 2.683-3.033 3.939-4.639 3.939a1.941 1.941 0 0 1-2.013-2.159 9.367 9.367 0 0 1 .409-2.48l2.071-7.586a4.556 4.556 0 0 0 .176-.934c0-.41-.146-.613-.524-.613-1.664 0-5.692 4.143-6.975 9.307l-1.057 4.173h-3.18l3.237-12.925-1.721-.963.084-.437 5.081-1.255h.438z"/>
        <path data-name="Fill 24" d="M129.79.319h13.185v4.149h-7.885v4.98h6.29v3.862h-6.29v5.683h8.334v4.151H129.79z"/>
        <path data-name="Fill 26" d="M149.329 11.395 143.934.319h5.938l3.225 7.406 3.161-7.406h5.363l-5.108 10.916 5.778 11.906h-5.97l-3.7-8.363-3.676 8.364h-5.394z"/>
        <path data-name="Fill 28" d="M168.262 23.142h-5.3V.319h7.279c2.653 0 4.662.575 5.971 1.708a6.358 6.358 0 0 1 1.95 5.059v.957a6.081 6.081 0 0 1-2.011 4.952 8.865 8.865 0 0 1-5.75 1.624h-2.139v8.521zm0-18.8v6.577h1.788c2 0 2.97-.95 2.97-2.9v-.87c0-1.969-.888-2.808-2.97-2.808z"/>
        <path data-name="Fill 30" d="M184.29 23.143h-5.3V.319h7.47c5.339 0 8.047 2.2 8.047 6.544v.83c0 2.8-1.18 4.6-3.608 5.522l4.6 9.926h-5.591l-4.018-8.97h-1.6v8.97zm0-18.77v6.256h1.979a3.333 3.333 0 0 0 2.3-.667 2.762 2.762 0 0 0 .766-2.175v-.768c0-1.833-.945-2.65-3.065-2.65z"/>
        <path data-name="Fill 32" d="M196.101.319h13.187v4.149h-7.887v4.98h6.29v3.862h-6.29v5.683h8.335v4.151h-13.635z"/>
        <g data-name="Group 36">
            <path data-name="Clip 35" d="M0 0h16v23.493H0z" style="fill:none" transform="translate(209.925)"/>
            <g data-name="Group 36" style="clip-path:url(#fd0jxxpz5b)" transform="translate(209.925)">
                <path data-name="Fill 34" d="M0 16.28h5.109c.1 2.2.863 3.287 3.1 3.287a2.34 2.34 0 0 0 2.619-2.555c0-1.882-1.054-2.457-3.671-3.223-4.566-1.373-6.7-3.1-6.7-7.278C.449 2.617 3.288 0 7.919 0s7.375 2.106 7.6 6.639h-4.982c-.128-1.979-1.085-2.714-2.65-2.714a2.08 2.08 0 0 0-2.363 2.2c0 1.565.734 2.2 3.417 3C13.155 10.31 16 11.779 16 16.5c0 4.246-2.873 6.991-7.791 6.991C2.97 23.493.129 21.1 0 16.28"/>
            </g>
        </g>
        <g data-name="Group 39">
            <path data-name="Clip 38" d="M0 0h16v23.493H0z" style="fill:none" transform="translate(226.559)"/>
            <g data-name="Group 39" style="clip-path:url(#fd0jxxpz5b)" transform="translate(226.559)">
                <path data-name="Fill 37" d="M0 16.28h5.108c.1 2.2.862 3.287 3.1 3.287a2.339 2.339 0 0 0 2.616-2.555c0-1.882-1.052-2.457-3.671-3.223C2.586 12.416.446 10.693.446 6.511.446 2.617 3.288 0 7.917 0s7.376 2.106 7.6 6.639h-4.98c-.127-1.979-1.084-2.713-2.65-2.713a2.08 2.08 0 0 0-2.362 2.2c0 1.565.733 2.2 3.416 3C13.153 10.31 16 11.779 16 16.5c0 4.246-2.874 6.991-7.79 6.991C2.968 23.493.127 21.1 0 16.28"/>
            </g>
        </g>
        <path data-name="Fill 40" d="M62.598 14.768c1.751-3.297 5.019-7.206 7.821-7.206 1.459 0 1.984.816 1.984 2.159a7.687 7.687 0 0 1-.171 1.341l-2.275 8.52a6.244 6.244 0 0 0-.263 1.254c0 .293.145.438.408.438.554 0 1.314-.613 2.569-2.159l.5.38c-1.839 2.683-3.034 3.939-4.639 3.939a1.942 1.942 0 0 1-2.015-2.159 9.44 9.44 0 0 1 .408-2.48l2.073-7.586a4.685 4.685 0 0 0 .175-.934c0-.41-.147-.613-.525-.613-1.664 0-5.692 4.143-6.976 9.307l-1.059 4.173h-3.181l3.24-12.925-1.722-.963.088-.437 5.077-1.255h.437z"/>
    </g>
</svg>
