<svg xmlns="http://www.w3.org/2000/svg" width="20.083" height="20.082" viewBox="0 0 20.083 20.082">
    <g data-name="Group 258">
        <path data-name="Path 100" d="M3035.685 401.407c2.681 0 3 .01 4.058.058a5.555 5.555 0 0 1 1.865.346 3.328 3.328 0 0 1 1.906 1.906 5.563 5.563 0 0 1 .345 1.865c.048 1.059.059 1.376.059 4.057s-.01 3-.059 4.057a5.56 5.56 0 0 1-.345 1.865 3.327 3.327 0 0 1-1.906 1.906 5.554 5.554 0 0 1-1.865.346c-1.059.048-1.376.058-4.058.058s-3-.01-4.057-.058a5.544 5.544 0 0 1-1.864-.346 3.322 3.322 0 0 1-1.906-1.906 5.569 5.569 0 0 1-.346-1.865c-.048-1.059-.059-1.376-.059-4.057s.01-3 .059-4.057a5.572 5.572 0 0 1 .346-1.865 3.323 3.323 0 0 1 1.906-1.906 5.545 5.545 0 0 1 1.864-.346c1.059-.048 1.376-.058 4.057-.058m0-1.809c-2.727 0-3.069.012-4.14.06a7.374 7.374 0 0 0-2.437.467 5.132 5.132 0 0 0-2.937 2.937 7.363 7.363 0 0 0-.467 2.437c-.049 1.071-.061 1.413-.061 4.14s.012 3.069.061 4.14a7.364 7.364 0 0 0 .467 2.437 5.132 5.132 0 0 0 2.937 2.937 7.374 7.374 0 0 0 2.437.467c1.071.049 1.413.06 4.14.06s3.069-.012 4.14-.06a7.374 7.374 0 0 0 2.437-.467 5.135 5.135 0 0 0 2.937-2.937 7.376 7.376 0 0 0 .467-2.437c.049-1.071.061-1.413.061-4.14s-.012-3.069-.061-4.14a7.376 7.376 0 0 0-.467-2.437 5.135 5.135 0 0 0-2.937-2.937 7.374 7.374 0 0 0-2.437-.467c-1.071-.049-1.413-.06-4.14-.06" transform="translate(-3025.644 -399.598)" style="fill:#36383c"/>
        <path data-name="Path 101" d="M3523.45 522.111a1.205 1.205 0 1 1-1.205-1.2 1.206 1.206 0 0 1 1.205 1.2" transform="translate(-3506.844 -517.43)" style="fill:#36383c"/>
        <path data-name="Path 102" d="M3206.016 574.956a5.016 5.016 0 1 0 5.017 5.016 5.016 5.016 0 0 0-5.017-5.016zm0 8.362a3.347 3.347 0 1 1 3.346-3.347 3.346 3.346 0 0 1-3.346 3.347z" transform="translate(-3195.975 -569.931)" style="fill:#36383c"/>
    </g>
</svg>
