<svg xmlns="http://www.w3.org/2000/svg" width="22.983" height="18.387" viewBox="0 0 22.983 18.387">
    <path d="M20.644 5.177q0-.3-.013-.6a9.516 9.516 0 0 0 2.352-2.4 9.507 9.507 0 0 1-2.709.731A4.672 4.672 0 0 0 22.349.337a9.549 9.549 0 0 1-2.994 1.127 4.774 4.774 0 0 0-6.672-.2A4.6 4.6 0 0 0 11.317 5.7 13.464 13.464 0 0 1 1.6.847a4.6 4.6 0 0 0 1.46 6.2 4.735 4.735 0 0 1-2.135-.58v.059a4.662 4.662 0 0 0 3.784 4.55 4.767 4.767 0 0 1-2.13.08 4.713 4.713 0 0 0 4.406 3.224 9.555 9.555 0 0 1-5.858 1.987A9.79 9.79 0 0 1 0 16.3a13.506 13.506 0 0 0 7.23 2.085A13.217 13.217 0 0 0 20.644 5.177z" style="fill:#36383c;fill-rule:evenodd"/>
</svg>
